<?xml version="1.0" encoding="UTF-8"?>
<svg id="logo" xmlns="http://www.w3.org/2000/svg" version="1.1" viewBox="0 0 200 36">
  <!-- Generator: Adobe Illustrator 30.1.0, SVG Export Plug-In . SVG Version: 2.1.1 Build 136)  -->
  <path id="green" d="M46.7,18.6c-.9,0-1.7.8-1.7,1.7s.8,1.7,1.7,1.7,1.7-.8,1.7-1.7h0c0-.9-.8-1.7-1.7-1.7M46.7,10.9c-.9,0-1.7.8-1.7,1.7s.8,1.7,1.7,1.7,1.7-.8,1.7-1.7h0c0-.9-.8-1.7-1.7-1.7M50.5,14.7c-.9,0-1.7.8-1.7,1.7s.8,1.7,1.7,1.7,1.7-.8,1.7-1.7h0c0-.9-.8-1.7-1.7-1.7M42.8,14.7c-.9,0-1.7.8-1.7,1.7s.8,1.7,1.7,1.7,1.7-.8,1.7-1.7h0c0-.9-.8-1.7-1.7-1.7"/>
  <path id="white" d="M45.5.5h-29.3C7.4.5.2,7.4,0,16.2c-.1,8.8,6.9,16,15.6,16.1,4.2,0,8.2-1.5,11.2-4.4.3-.2.4-.6.4-.9v-5.3c0-.4-.3-.8-.8-.8h-4.6c-.4,0-.8.3-.8.8h0v2.3c0,.5-.3.9-.7,1.1-4.8,2.5-10.7.6-13.1-4.2-2.5-4.8-.6-10.7,4.2-13.1,1.4-.7,2.9-1.1,4.5-1.1h18.2c-2.2,2.8-3.4,6.2-3.4,9.8h0v18.5c0,.4.3.8.8.8h4.6c.4,0,.8-.3.8-.8v-5.9c6.9,5.4,16.9,4.1,22.3-2.8s4.1-16.9-2.8-22.3c-2.8-2.2-6.2-3.5-9.8-3.5,0,0-1.1,0-1.1,0ZM47.8,26.1c-5.3.6-10.2-3.3-10.8-8.6-.6-5.4,3.3-10.2,8.6-10.8,5.3-.6,10.2,3.3,10.8,8.6v2.1c-.5,4.5-4.1,8.1-8.6,8.6M14.8,21.9h2.3c.3,0,.5-.2.5-.5h0v-3.3h3.3c.3,0,.5-.2.5-.5v-2.3c0-.3-.2-.5-.5-.5h-3.3v-3.3c0-.3-.2-.5-.5-.5h-2.3c-.3,0-.5.2-.5.5v3.3h-3.3c-.3,0-.5.2-.5.5h0v2.3c0,.3.2.5.5.5h3.3v3.3c0,.3.2.5.5.5h0M107.2,6.9c3.7,0,6.8,2.8,6.9,6.5,0,3.7-2.8,6.8-6.5,6.9h-4v4.7c0,.4-.3.8-.7.8h-4.1c-.4,0-.8-.3-.8-.7h0V7.7c0-.4.2-.8.7-.8,0,0,8.5,0,8.5,0ZM95.4,15.1c.8,0,.8.4.8,1.3.2,5.2-3.9,9.6-9.1,9.8h-.8c-5.4.1-9.9-4.1-10-9.5-.2-5.4,4.1-9.9,9.5-10h.5c4.1,0,7.8,2.3,9.2,6.1.2.6,0,.9-.7.9h-4.2c-.4,0-.8-.2-1-.5-.8-1.1-2-1.8-3.4-1.8-2.6,0-4.4,2.1-4.4,5s1.8,5,4.4,5,3.1-.8,3.8-2.2h-2.9c-.4,0-.8-.3-.8-.7h0v-2.6c0-.4.3-.8.7-.8,0,0,8.4,0,8.4,0ZM106.6,15.7c1,0,1.9-.9,1.9-1.9h0c0-1.1-.7-1.9-1.7-2h-3.2v3.9h3,0ZM128.2,21c.4,0,.8.2.8.7h0v3.4c0,.4-.2.8-.7.8h-11.5c-.4,0-.8-.2-.8-.7h0V7.7c0-.4.3-.8.7-.8h4.1c.4,0,.8.3.8.7v13.4h6.7-.1ZM150.4,25c.2.6,0,.9-.6.9h-4.3c-.4,0-.8-.2-.9-.7l-.8-2.5h-6.2l-.8,2.5c-.1.4-.5.7-.9.7h-4.3c-.6,0-.8-.4-.6-.9l6.1-17.4c.1-.4.5-.7.9-.7h5.3c.4,0,.8.2.9.7l6.1,17.4h.1ZM138.7,19.1h4.1l-2-6.8-2,6.8h-.1ZM165,6.9c.6,0,.9.4.5,1l-6.6,10.7v6.4c0,.4-.3.8-.7.8h-4c-.4,0-.8-.3-.8-.7h0v-6.4l-6.7-10.9c-.3-.5-.1-1,.5-1h4.5c.4,0,.8.2.9.6l3.4,6.5,3.4-6.5c.2-.4.6-.6.9-.6h4.7ZM172.8,11.8v2.2h6.9c.4,0,.8.2.8.7h0v3.2c0,.4-.2.8-.7.8h-7.1v2.3h7.5c.4,0,.8.2.8.7h0v3.4c0,.4-.3.8-.7.8h-12.3c-.4,0-.8-.3-.8-.7h0V7.7c0-.4.2-.8.7-.8h12.3c.4,0,.8.2.8.7v3.4c0,.4-.2.8-.7.8h-7.6.1ZM190.3,6.9c5.2,0,9.6,4,9.7,9.2s-4,9.6-9.2,9.7h-7.3c-.4,0-.8-.2-.8-.7h0V7.7c0-.4.3-.8.7-.8h6.9ZM190.2,21c2.5-.2,4.4-2.5,4.1-5.1-.2-2.2-1.9-3.9-4.1-4.2h-2v9.2h2Z" fill="currentColor"/>
</svg>