<?xml version="1.0" encoding="UTF-8"?>
<svg id="logo" xmlns="http://www.w3.org/2000/svg" viewBox="0 0 200 35.14">
  <defs>
    <style>
      .cls-1 {
        fill: #fff;
      }

      .cls-2 {
        fill: #4ce5ae;
      }
    </style>
  </defs>
  <path id="green" class="cls-2" d="M46.69,18.09c-.92,0-1.67.75-1.67,1.67s.75,1.67,1.67,1.67c.92,0,1.67-.75,1.67-1.67h0c0-.92-.75-1.67-1.67-1.67M46.69,10.39c-.92,0-1.67.75-1.67,1.67s.75,1.67,1.67,1.67,1.67-.75,1.67-1.67h0c0-.92-.75-1.67-1.67-1.67M50.54,14.24c-.92,0-1.67.75-1.67,1.67s.75,1.67,1.67,1.67,1.67-.75,1.67-1.67h0c0-.92-.75-1.67-1.67-1.67M42.84,14.24c-.92,0-1.67.75-1.67,1.67s.75,1.67,1.67,1.67,1.67-.75,1.67-1.67h0c0-.92-.75-1.67-1.67-1.67M95.4,14.52c.84,0,.84.46.84,1.38.19,5.2-3.87,9.56-9.07,9.75-.27,0-.54,0-.81,0-5.38.15-9.86-4.1-10.01-9.48-.15-5.38,4.1-9.86,9.48-10.01.18,0,.35,0,.53,0,4.08-.14,7.8,2.33,9.25,6.14.19.57-.14.92-.7.92h-4.17c-.4,0-.77-.2-.97-.54-.76-1.12-2.03-1.78-3.39-1.76-2.57,0-4.41,2.08-4.41,4.96s1.84,4.96,4.41,4.96c1.58.08,3.06-.8,3.76-2.22h-2.95c-.41.04-.77-.26-.81-.66,0-.05,0-.1,0-.15v-2.48c-.04-.41.26-.77.66-.81.05,0,.1,0,.15,0h8.2Z"/>
  <path id="white" class="cls-1" d="M46.69,0h-30.54C7.4-.05.22,6.91,0,15.66c-.14,8.78,6.86,16.01,15.63,16.15,4.16.07,8.17-1.5,11.19-4.36.26-.24.41-.59.41-.94v-5.34c0-.42-.34-.77-.77-.77h-4.64c-.42,0-.77.34-.77.76h0v2.26c0,.47-.26.91-.67,1.13-4.78,2.48-10.66.62-13.14-4.16-2.48-4.78-.62-10.66,4.16-13.14,1.39-.72,2.93-1.1,4.49-1.1.1,0,.19,0,.29,0h12.27,0s5.68,0,5.68,0h0c-2.17,2.79-3.35,6.22-3.35,9.75v.03h0v18.44c0,.42.34.77.77.77h4.62c.42,0,.77-.34.77-.77v-5.92c6.94,5.39,16.92,4.13,22.31-2.81,5.39-6.94,4.13-16.92-2.81-22.31C53.65,1.17,50.22,0,46.69,0M47.75,25.6c-5.35.58-10.17-3.28-10.75-8.63-.58-5.35,3.28-10.17,8.63-10.75,5.35-.58,10.17,3.28,10.75,8.63.08.7.08,1.41,0,2.12-.5,4.54-4.09,8.13-8.63,8.63M14.75,21.42h2.31c.28,0,.51-.23.51-.51h0v-3.34h3.34c.28,0,.51-.23.51-.51v-2.31c0-.28-.23-.51-.51-.51h-3.34v-3.34c0-.28-.23-.51-.51-.51h-2.31c-.28,0-.51.23-.51.51v3.34h-3.34c-.28,0-.51.23-.51.51h0v2.31c0,.28.23.51.51.51h3.34v3.34c0,.28.23.51.51.51h0M107.19,6.43c3.7-.1,6.78,2.82,6.88,6.52.1,3.7-2.82,6.78-6.52,6.88-.12,0-.24,0-.36,0h-3.65v4.73c.04.41-.26.77-.66.81-.05,0-.1,0-.15,0h-3.9c-.41.04-.77-.26-.81-.66,0-.05,0-.1,0-.15V7.24c-.04-.41.25-.77.66-.81.05,0,.1,0,.15,0h8.36ZM106.57,15.17c1.04-.01,1.88-.87,1.87-1.91,0-.01,0-.03,0-.04.05-1.01-.73-1.87-1.74-1.92-.04,0-.08,0-.12,0h-3.03v3.87h3.03ZM128.16,20.5c.41-.04.77.25.81.66,0,.05,0,.1,0,.15v3.25c.04.41-.25.77-.66.81-.05,0-.1,0-.15,0h-11.37c-.41.04-.77-.25-.81-.66,0-.05,0-.1,0-.15V7.24c-.04-.41.26-.77.66-.81.05,0,.1,0,.15,0h3.9c.41-.04.77.26.81.66,0,.05,0,.1,0,.15v13.26h6.66ZM150.41,24.45c.19.57-.05.92-.65.92h-4.28c-.43.03-.82-.25-.92-.68l-.76-2.49h-6.22l-.76,2.49c-.1.42-.49.71-.92.68h-4.28c-.59,0-.84-.35-.65-.92l6.12-17.37c.12-.41.52-.69.95-.65h5.3c.43-.04.83.23.95.65l6.11,17.37ZM138.66,18.61h4.06l-2.03-6.79-2.03,6.79ZM165.04,6.43c.65,0,.87.43.54.97l-6.58,10.72v6.44c.04.41-.26.77-.66.81-.05,0-.1,0-.15,0h-3.9c-.41.04-.77-.26-.81-.66,0-.05,0-.1,0-.15v-6.25l-6.69-10.9c-.33-.54-.11-.97.54-.97h4.47c.4-.01.77.21.95.57l3.44,6.49,3.44-6.49c.18-.36.55-.58.95-.57h4.46ZM172.76,11.3v2.24h6.93c.41-.04.77.25.81.66,0,.05,0,.1,0,.15v3.03c.04.41-.25.77-.66.81-.05,0-.1,0-.15,0h-6.93v2.3h7.47c.41-.04.77.25.81.66,0,.05,0,.1,0,.15v3.25c.04.41-.26.77-.66.81-.05,0-.1,0-.15,0h-12.18c-.41.04-.77-.26-.81-.66,0-.05,0-.1,0-.15V7.24c-.04-.41.25-.77.66-.81.05,0,.1,0,.15,0h12.18c.41-.04.77.25.81.66,0,.05,0,.1,0,.15v3.25c.04.41-.25.77-.66.81-.05,0-.1,0-.15,0h-7.47ZM190.26,6.43c5.23-.14,9.59,3.98,9.73,9.21.14,5.23-3.98,9.59-9.21,9.73-.17,0-.35,0-.52,0h-6.74c-.41.04-.77-.25-.81-.66,0-.05,0-.1,0-.15V7.24c-.04-.41.26-.77.66-.81.05,0,.1,0,.15,0h6.74ZM190.21,20.5c2.54-.25,4.4-2.51,4.15-5.05-.22-2.19-1.95-3.93-4.15-4.15h-1.98v9.2h1.98Z"/>
</svg>